/* XPM */
static char *graphic[] = {
/* width height num_colors chars_per_pixel */
"64 64 98 2", 
/* colors */
"   c None",
".  c None",
"X  c #0098CB",
"o  c None",
"O  c #0098CB",
"+  c #0098CB",
"@  c #0098CB",
"#  c #0097C8",
"$  c #0098CB",
"%  c None",
"&  c #0098CB",
"*  c #0098CB",
"=  c #0098CB",
"-  c None",
";  c #0098CB",
":  c #0098CB",
">  c None",
",  c #0097CA",
"<  c None",
"1  c None",
"2  c #0097CB",
"3  c None",
"4  c #0097CB",
"5  c #0099CB",
"6  c None",
"7  c #0097CA",
"8  c None",
"9  c #0099CB",
"0  c None",
"q  c None",
"w  c None",
"e  c #0197C9",
"r  c None",
"t  c None",
"y  c None",
"u  c None",
"i  c #0197CA",
"p  c #0199CC",
"a  c None",
"s  c #0199CC",
"d  c None",
"f  c None",
"g  c #0197C9",
"h  c #0099CB",
"j  c None",
"k  c None",
"l  c None",
"z  c None",
"x  c #009ACB",
"c  c #0099CB",
"v  c None",
"b  c #0099CC",
"n  c #0099CC",
"m  c #0099CC",
"M  c #0099CB",
"N  c None",
"B  c #0099CC",
"V  c #0097CB",
"C  c None",
"Z  c #0099CC",
"A  c #0099CC",
"S  c #0099CC",
"D  c #0098CA",
"F  c None",
"G  c None",
"H  c None",
"J  c None",
"K  c None",
"L  c #0098CA",
"P  c None",
"I  c None",
"U  c None",
"Y  c None",
"T  c None",
"R  c None",
"E  c #0098CA",
"W  c None",
"Q  c None",
"!  c None",
"~  c None",
"^  c #0198CB",
"/  c None",
"(  c #0098CB",
")  c #0198C9",
"_  c #0198CB",
"`  c None",
"'  c #0098CA",
"]  c None",
"[  c #0198CB",
"{  c #0098CA",
"}  c #0198CB",
"|  c #0098CA",
" . c #0098CA",
".. c #0198CB",
"X. c None",
"o. c None",
"O. c None",
"+. c None",
/* pixels */
"9 ( ( ( ( ( ( ( ( ( ( ( ( ( ( ( ( ( ( ( ( ( ( ( ( ( ( ( ( ( ( ( ( ( ( ( ( ( ( ( ( ( ( ( ( ( ( ( ( ( ( ( ( ( ( ( ( ( ( ( ( ( ( 9 ",
"( S S S S S S S S S S S S S S S S S S S S S S S S S S S S S S S S S S S S S S S S S S S S S S S S S S S S S S S S S S S S S S ( ",
"( S S S S S S S S S S S S S S S S S S S S S S S S S S S S S S S S S S S S S S S S S S S S S S S S S S S S S S S S S S S S S S ( ",
"( S S A $ V V V V V V V V V V V V V V V V V V V V V V V V V V V V V V V V V V V V V V V V V V V V V V V V V V V V V V $ A S S ( ",
"( S S $ 7 y o.o.o.o.o.o.o.o.o.o.o.o.o.o.o.o.o.o.o.o.o.o.o.o.o.o.o.o.o.o.o.o.o.o.o.o.o.o.o.o.o.o.o.o.o.o.o.o.o.o.o.o.y 7 $ S S ( ",
"( S S V j O.X.X.X.X.X.X.X.X.X.X.X.X.X.X.X.X.X.X.X.X.X.X.X.X.X.X.X.X.X.X.X.X.X.X.X.X.X.X.X.X.X.X.X.X.X.X.X.X.X.X.X.X.O.j V S S ( ",
"( S S V o.X.                                                                                                        X.o.V S S ( ",
"( S S V o.X.            t z z z z z z z z z z z z z z z z z z z z z z z z z z z z z z z z z z z z z z z z z z U     X.o.V S S ( ",
"( S S V o.X.          . u x D D D D D D D D D D D D D D D D D D D D D D D D D D D D D D D D D D D D D D D D , ` T   X.o.V S S ( ",
"( S S V o.X.          ] H _ X ; ; ; ; ; ; ; ; ; ; ; ; ; ; ; ; ; ; ; ; ; ; ; ; ; ; ; ; ; ; ; ; ; ; ; ; ; ; ;  .F U   X.o.V S S ( ",
"( S S V o.X.            X.d s + S S S S S S S S S S S S S S S S S S S S S S S S S S S S S S S S S S S S S S c < U   X.o.V S S ( ",
"( S S V o.X.    P X.      X.d s + S S S S S S S S S S S S S S S S S S S S S S S S S S S S S S S S S S S S S c < U   X.o.V S S ( ",
"( S S V o.X.  U 1 q O.      X.d s + S S S S S S S S S S S S S S S S S S S S S S S S S S S S S S S S S S S S c < U   X.o.V S S ( ",
"( S S V o.X.  G % } Q O.      X.d s + S S S S S S S S S S S S S S S S S S S S S S S S S S S S S S S S S S S c < U   X.o.V S S ( ",
"( S S V o.X.  G 2 O ..Q O.      X.d s + S S S S S S S S S S S S S S S S S S S S S S S S S S S S S S S S S S c < U   X.o.V S S ( ",
"( S S V o.X.  G 2 = * ..Q O.      X.d s + S S S S S S S S S S M B c c c c c c c c c c c c c c c c c c c c c m - U   X.o.V S S ( ",
"( S S V o.X.  G 2 = S * ..Q O.      X.d s + S S S S S S S S S ' ^ < < < < < < < < < < < < < < < < < < < < < C ! w   X.o.V S S ( ",
"( S S V o.X.  G 2 = S S * ..Q O.      X.d s + S S S S S S S S | i / +.U U U U U U U U U U U U U U U U U U U U w     X.o.V S S ( ",
"( S S V o.X.  G 2 = S S S * ..Q O.      X.d s + S S S S S S S S X e R ]                                             X.o.V S S ( ",
"( S S V o.X.  G 2 = S S S S * g ~ X.      X.d s + S S S S S S S S X e R ]                                           X.o.V S S ( ",
"( S S V o.X.  G 2 = S S S S S @ o P         X.d s + S S S S S S S S X e R ]                                         X.o.V S S ( ",
"( S S V o.X.  G 2 = S S S S S = 2 G           X.d s + S S S S S S S S X e R ]                                       X.o.V S S ( ",
"( S S V o.X.  G 2 = S S S S S = 2 G             X.d s + S S S S S S S S X e R ]                                     X.o.V S S ( ",
"( S S V o.X.  G 2 = S S S S S = 2 G               X.d s + S S S S S S S S X e 8 W z z z z z z z z z z z z z z U     X.o.V S S ( ",
"( S S V o.X.  G 2 = S S S S S = 2 G                 X.d s + S S S S S S S S X ) # D D D D D D D D D D D D D , ` T   X.o.V S S ( ",
"( S S V o.X.  G 2 = S S S S S = 2 G                   X.d s + S S S S S S S S Z ; ; ; ; ; ; ; ; ; ; ; ; ; ;  .F U   X.o.V S S ( ",
"( S S V o.X.  G 2 = S S S S S = 2 G                     X.d s + S S S S S S S S S S S S S S S S S S S S S S c < U   X.o.V S S ( ",
"( S S V o.X.  G 2 = S S S S S = 2 G                       X.d s + S S S S S S S S S S S S S S S S S S S S S c < U   X.o.V S S ( ",
"( S S V o.X.  G 2 = S S S S S = 2 G                         X.d s + S S S S S S S S S S S S S S S S S S S S c < U   X.o.V S S ( ",
"( S S V o.X.  G 2 = S S S S S = 2 G                           X.d s + S S S S S S S S S S S S S S S S S S S c < U   X.o.V S S ( ",
"( S S V o.X.  G 2 = S S S S S = 2 G                             X.d s + S S S S S S S S S S S S S S S S S S c < U   X.o.V S S ( ",
"( S S V o.X.  G 2 = S S S S S = 2 G                               X.d s + S S S S S S S S S S M B c c c c c m - U   X.o.V S S ( ",
"( S S V o.X.  G 2 = S S S S S = 2 G                                 X.d s + S S S S S S S S S ' ^ < < < < < C ! w   X.o.V S S ( ",
"( S S V o.X.  G 2 = S S S S S = 2 G                                   X.d s + S S S S S S S S | i / +.U U U U w     X.o.V S S ( ",
"( S S V o.X.  G 2 = S S S S S = 2 G                                     X.d s + S S S S S S S S X e R ]             X.o.V S S ( ",
"( S S V o.X.  G 2 = S S S S S = 2 G                                       X.d s + S S S S S S S S X e R ]           X.o.V S S ( ",
"( S S V o.X.  G 2 = S S S S S = 2 G                                         X.d s + S S S S S S S S X e R ]         X.o.V S S ( ",
"( S S V o.X.  G 2 = S S S S S = 2 G                                           X.d s + S S S S S S S S X e R ]       X.o.V S S ( ",
"( S S V o.X.  G 2 = S S S S S = 2 G                                             X.d s + S S S S S S S S X e R ]     X.o.V S S ( ",
"( S S V o.X.  G 2 = S S S S S = 2 G                                               X.d s + S S S S S S S S X e v     X.o.V S S ( ",
"( S S V o.X.  G 2 = S S S S S = 2 G                                                 X.d s + S S S S S S S S h N T   X.o.V S S ( ",
"( S S V o.X.  G 2 = S S S S S = 2 G                                                   X.d s + S S S S S S S c < U   X.o.V S S ( ",
"( S S V o.X.  G 2 = S S S S S = 2 G                                                     X.d s + S S S S S S c < U   X.o.V S S ( ",
"( S S V o.X.  G 2 = S S S S S = 2 G                                                       X.d s + S S S S S c < U   X.o.V S S ( ",
"( S S V o.X.  G 2 = S S S S S = 2 G                                                         X.d s + S S S S c < U   X.o.V S S ( ",
"( S S V o.X.  G 2 = S S S S S = 2 G                                                           X.d s + S S S c < U   X.o.V S S ( ",
"( S S V o.X.  G 2 = S S S S S = 4 I J J J J J J J J J J J J J J J J J J J J J J J J J W X.      X.d s + S S c < U   X.o.V S S ( ",
"( S S V o.X.  G 2 = S S S S S M E 5 L L L L L L L L L L L L L L L L L L L L L L L L L 4 K O.      X.d s + S c < U   X.o.V S S ( ",
"( S S V o.X.  G 2 = S S S S S S : M M M M M M M M M M M M M M M M M M M M M M M M M M & ..Q O.      X.d s + c < U   X.o.V S S ( ",
"( S S V o.X.  G 2 = S S S S S S S S S S S S S S S S S S S S S S S S S S S S S S S S S S * ..Q O.      X.d s b < U   X.o.V S S ( ",
"( S S V o.X.  G 2 = S S S S S S S S S S S S S S S S S S S S S S S S S S S S S S S S S S S * ..Q O.      X.d p l U   X.o.V S S ( ",
"( S S V o.X.  G 2 = S S S S S S S S S S S S S S S S S S S S S S S S S S S S S S S S S S S S * ..Q O.      X.6 Y T   X.o.V S S ( ",
"( S S V o.X.  G 2 = S S S S S S S S S S S S S S S S S S S S S S S S S S S S S S S S S S S S S * ..Q O.        X.    X.o.V S S ( ",
"( S S V o.X.  G 2 = S S S S S S S S S S S S S S S S S S S S S S S S S S S S S S S S S S S S S S * ..Q O.            X.o.V S S ( ",
"( S S V o.X.  G > n + + + + + + + + + + + + + + + + + + + + + + + + + + + + + + + + + + + + + + + { [ 3 X.          X.o.V S S ( ",
"( S S V o.X.  T r f k k k k k k k k k k k k k k k k k k k k k k k k k k k k k k k k k k k k k k k k a 0 T           X.o.V S S ( ",
"( S S V o.X.    X.T T T T T T T T T T T T T T T T T T T T T T T T T T T T T T T T T T T T T T T T T T X.            X.o.V S S ( ",
"( S S V o.X.                                                                                                        X.o.V S S ( ",
"( S S V j O.X.X.X.X.X.X.X.X.X.X.X.X.X.X.X.X.X.X.X.X.X.X.X.X.X.X.X.X.X.X.X.X.X.X.X.X.X.X.X.X.X.X.X.X.X.X.X.X.X.X.X.X.O.j V S S ( ",
"( S S $ 7 y o.o.o.o.o.o.o.o.o.o.o.o.o.o.o.o.o.o.o.o.o.o.o.o.o.o.o.o.o.o.o.o.o.o.o.o.o.o.o.o.o.o.o.o.o.o.o.o.o.o.o.o.y 7 $ S S ( ",
"( S S A $ V V V V V V V V V V V V V V V V V V V V V V V V V V V V V V V V V V V V V V V V V V V V V V V V V V V V V V $ A S S ( ",
"( S S S S S S S S S S S S S S S S S S S S S S S S S S S S S S S S S S S S S S S S S S S S S S S S S S S S S S S S S S S S S S ( ",
"( S S S S S S S S S S S S S S S S S S S S S S S S S S S S S S S S S S S S S S S S S S S S S S S S S S S S S S S S S S S S S S ( ",
"9 ( ( ( ( ( ( ( ( ( ( ( ( ( ( ( ( ( ( ( ( ( ( ( ( ( ( ( ( ( ( ( ( ( ( ( ( ( ( ( ( ( ( ( ( ( ( ( ( ( ( ( ( ( ( ( ( ( ( ( ( ( ( 9 "
};
