/* XPM */
static char *graphic[] = {
/* width height num_colors chars_per_pixel */
"16 16 85 1", 
/* colors */
"  c None",
". c None",
"X c None",
"o c #0098CC",
"O c #0098CB",
"+ c #0098CC",
"@ c None",
"# c #0098CB",
"$ c None",
"% c #0097CA",
"& c #0198CB",
"* c None",
"= c None",
"- c None",
"; c #0099CC",
": c None",
"> c None",
", c None",
"< c #0097CB",
"1 c #0097CA",
"2 c #0097CB",
"3 c #0097CB",
"4 c None",
"5 c None",
"6 c None",
"7 c None",
"8 c None",
"9 c #0097CB",
"0 c None",
"q c None",
"w c #0199CD",
"e c None",
"r c #0197CC",
"t c None",
"y c None",
"u c None",
"i c #0099CB",
"p c None",
"a c #0197CB",
"s c None",
"d c None",
"f c None",
"g c #0097CB",
"h c #0099CC",
"j c None",
"k c None",
"l c None",
"z c #0099CC",
"x c #0099CC",
"c c None",
"v c #0098CB",
"b c #0098CB",
"n c #0098CB",
"m c None",
"M c #0098CA",
"N c None",
"B c #0098CB",
"V c #0098CB",
"C c #0198C9",
"Z c #0098CB",
"A c None",
"S c #0098CA",
"D c None",
"F c None",
"G c #0198CB",
"H c None",
"J c #0098CB",
"K c None",
"L c None",
"P c #0098CC",
"I c None",
"U c None",
"Y c None",
"T c None",
"R c None",
"E c None",
"W c #0098CB",
"Q c #0098CB",
"! c None",
"~ c #0098CB",
"^ c #0098CB",
"/ c #0098CB",
"( c #0098CB",
") c None",
"_ c #0098CC",
/* pixels */
"n<MMMMMMMMMMMM<n",
"<d,quFFFFFFFF8)<",
"M$HE2P9999999%YM",
"MA:tr+xz^QQQQ;5M",
"M7ZwyG+OaLKKK>mM",
"M7SgelGh&I=NN0*M",
"M7S_DXlGhoJ99bYM",
"M7S_D XlG+xz~M5M",
"M7S_D  XlG+Oa,mM",
"M7S_D   XlGh&pDM",
"M7S_D    RlGh3fM",
"M7S/j44444cyrVUM",
"M7S#(iiiiiWCtskM",
"M-v11111111B@!,M",
"<.qTTTTTTTTT6,d<",
"n<MMMMMMMMMMMM<n"
};
