/* XPM */
static char *graphic[] = {
/* width height num_colors chars_per_pixel */
"128 128 86 1", 
/* colors */
"  c None",
". c None",
"X c None",
"o c None",
"O c #0098CB",
"+ c None",
"@ c #0098CB",
"# c #0098CB",
"$ c #0098CB",
"% c None",
"& c None",
"* c #0099CB",
"= c #0198CB",
"- c #0198CB",
"; c None",
": c None",
"> c #0097CB",
", c None",
"< c #0298CA",
"1 c #0199CA",
"2 c None",
"3 c None",
"4 c #0199C9",
"5 c None",
"6 c #0199CB",
"7 c #0099CB",
"8 c None",
"9 c #0099CC",
"0 c #0099CC",
"q c None",
"w c #0099CB",
"e c None",
"r c #0099CC",
"t c #0099CB",
"y c None",
"u c #0099CB",
"i c #0199CB",
"p c None",
"a c None",
"s c #0099CB",
"d c None",
"f c None",
"g c #0099CC",
"h c #0197CA",
"j c #0099CC",
"k c None",
"l c None",
"z c #0199CB",
"x c None",
"c c None",
"v c None",
"b c #0098CB",
"n c #0096CA",
"m c #0096CA",
"M c #0098CA",
"N c #0098CA",
"B c None",
"V c None",
"C c None",
"Z c #0098CB",
"A c None",
"S c None",
"D c None",
"F c #0399C9",
"G c None",
"H c #0098CC",
"J c None",
"K c None",
"L c None",
"P c None",
"I c #0399CA",
"U c None",
"Y c #0098CC",
"T c None",
"R c None",
"E c #0098CB",
"W c #0098CB",
"Q c #0198CB",
"! c #0098CB",
"~ c #0098CB",
"^ c #0098CB",
"/ c None",
"( c None",
") c #0198CB",
"_ c None",
"` c None",
/* pixels */
"ZrrrrrrrrrrrrrrrrrrrrrrrrrrrrrrrrrrrrrrrrrrrrrrrrrrrrrrrrrrrrrrrrrrrrrrrrrrrrrrrrrrrrrrrrrrrrrrrrrrrrrrrrrrrrrrrrrrrrrrrrrrrrrrZ",
"rjjjjjjjjjjjjjjjjjjjjjjjjjjjjjjjjjjjjjjjjjjjjjjjjjjjjjjjjjjjjjjjjjjjjjjjjjjjjjjjjjjjjjjjjjjjjjjjjjjjjjjjjjjjjjjjjjjjjjjjjjjjjjjr",
"rjjjjjjjjjjjjjjjjjjjjjjjjjjjjjjjjjjjjjjjjjjjjjjjjjjjjjjjjjjjjjjjjjjjjjjjjjjjjjjjjjjjjjjjjjjjjjjjjjjjjjjjjjjjjjjjjjjjjjjjjjjjjjjr",
"rjjjjjjjjjjjjjjjjjjjjjjjjjjjjjjjjjjjjjjjjjjjjjjjjjjjjjjjjjjjjjjjjjjjjjjjjjjjjjjjjjjjjjjjjjjjjjjjjjjjjjjjjjjjjjjjjjjjjjjjjjjjjjjr",
"rjjjjjjjjjjjjjjjjjjjjjjjjjjjjjjjjjjjjjjjjjjjjjjjjjjjjjjjjjjjjjjjjjjjjjjjjjjjjjjjjjjjjjjjjjjjjjjjjjjjjjjjjjjjjjjjjjjjjjjjjjjjjjjr",
"rjjjjjjjjjjjjjjjjjjjjjjjjjjjjjjjjjjjjjjjjjjjjjjjjjjjjjjjjjjjjjjjjjjjjjjjjjjjjjjjjjjjjjjjjjjjjjjjjjjjjjjjjjjjjjjjjjjjjjjjjjjjjjjr",
"rjjjjjjjjjjjjjjjjjjjjjjjjjjjjjjjjjjjjjjjjjjjjjjjjjjjjjjjjjjjjjjjjjjjjjjjjjjjjjjjjjjjjjjjjjjjjjjjjjjjjjjjjjjjjjjjjjjjjjjjjjjjjjjr",
"rjjjjjjjj$$$$$$$$$$$$$$$$$$$$$$$$$$$$$$$$$$$$$$$$$$$$$$$$$$$$$$$$$$$$$$$$$$$$$$$$$$$$$$$$$$$$$$$$$$$$$$$$$$$$$$$$$$$$$$jjjjjjjjr",
"rjjjjjjjwbnnnnnnnnnnnnnnnnnnnnnnnnnnnnnnnnnnnnnnnnnnnnnnnnnnnnnnnnnnnnnnnnnnnnnnnnnnnnnnnnnnnnnnnnnnnnnnnnnnnnnnnnnnnnbwjjjjjjjr",
"rjjjjjj$mPGGGGGGGGGGGGGGGGGGGGGGGGGGGGGGGGGGGGGGGGGGGGGGGGGGGGGGGGGGGGGGGGGGGGGGGGGGGGGGGGGGGGGGGGGGGGGGGGGGGGGGGGGGGGPm$jjjjjjr",
"rjjjjjj$nG                                                                                                            Gn$jjjjjjr",
"rjjjjjj$nG                                                                                                            Gn$jjjjjjr",
"rjjjjjj$nG                                                                                                            Gn$jjjjjjr",
"rjjjjjj$nG                                                                                                            Gn$jjjjjjr",
"rjjjjjj$nG                                                                                                            Gn$jjjjjjr",
"rjjjjjj$nG                                                                                                            Gn$jjjjjjr",
"rjjjjjj$nG             .:KBBBBBBBBBBBBBBBBBBBBBBBBBBBBBBBBBBBBBBBBBBBBBBBBBBBBBBBBBBBBBBBBBBBBBBBBBBBBBBBBBBBB2R      Gn$jjjjjjr",
"rjjjjjj$nG             .fQ!~~~~~~~~~~~~~~~~~~~~~~~~~~~~~~~~~~~~~~~~~~~~~~~~~~~~~~~~~~~~~~~~~~~~~~~~~~~~~~~~~~~HU      Gn$jjjjjjr",
"rjjjjjj$nG              `DigjjjjjjjjjjjjjjjjjjjjjjjjjjjjjjjjjjjjjjjjjjjjjjjjjjjjjjjjjjjjjjjjjjjjjjjjjjjjjjjjjjY&      Gn$jjjjjjr",
"rjjjjjj$nG               `DigjjjjjjjjjjjjjjjjjjjjjjjjjjjjjjjjjjjjjjjjjjjjjjjjjjjjjjjjjjjjjjjjjjjjjjjjjjjjjjjjjY&      Gn$jjjjjjr",
"rjjjjjj$nG                `DigjjjjjjjjjjjjjjjjjjjjjjjjjjjjjjjjjjjjjjjjjjjjjjjjjjjjjjjjjjjjjjjjjjjjjjjjjjjjjjjjY&      Gn$jjjjjjr",
"rjjjjjj$nG                 `DigjjjjjjjjjjjjjjjjjjjjjjjjjjjjjjjjjjjjjjjjjjjjjjjjjjjjjjjjjjjjjjjjjjjjjjjjjjjjjjjY&      Gn$jjjjjjr",
"rjjjjjj$nG                  `DigjjjjjjjjjjjjjjjjjjjjjjjjjjjjjjjjjjjjjjjjjjjjjjjjjjjjjjjjjjjjjjjjjjjjjjjjjjjjjjY&      Gn$jjjjjjr",
"rjjjjjj$nG      __           `DigjjjjjjjjjjjjjjjjjjjjjjjjjjjjjjjjjjjjjjjjjjjjjjjjjjjjjjjjjjjjjjjjjjjjjjjjjjjjjY&      Gn$jjjjjjr",
"rjjjjjj$nG      SaL           `DigjjjjjjjjjjjjjjjjjjjjjjjjjjjjjjjjjjjjjjjjjjjjjjjjjjjjjjjjjjjjjjjjjjjjjjjjjjjjY&      Gn$jjjjjjr",
"rjjjjjj$nG      3)5L           `DigjjjjjjjjjjjjjjjjjjjjjjjjjjjjjjjjjjjjjjjjjjjjjjjjjjjjjjjjjjjjjjjjjjjjjjjjjjjY&      Gn$jjjjjjr",
"rjjjjjj$nG      CE-5L           `DigjjjjjjjjjjjjjjjjjjjjjjjjjjjjjjjjjjjjjjjjjjjjjjjjjjjjjjjjjjjjjjjjjjjjjjjjjjY&      Gn$jjjjjjr",
"rjjjjjj$nG      CW$-5L           `DigjjjjjjjjjjjjjjjjjjjjjjjjjjjjjjjjjjjjjjjjjjjjjjjjjjjjjjjjjjjjjjjjjjjjjjjjjY&      Gn$jjjjjjr",
"rjjjjjj$nG      CWj$-5L           `DigjjjjjjjjjjjjjjjjjjjjjjjjjjjjjjjjjjjjjjjjjjjjjjjjjjjjjjjjjjjjjjjjjjjjjjjjY&      Gn$jjjjjjr",
"rjjjjjj$nG      CWjj$-5L           `DigjjjjjjjjjjjjjjjjjjjjjjjjjjjjjjjjjjjjjjjjjjjjjjjjjjjjjjjjjjjjjjjjjjjjjjjY&      Gn$jjjjjjr",
"rjjjjjj$nG      CWjjj$-5L           `DigjjjjjjjjjjjjjjjjjjjjjjjjjjjjjjjjjjjjjjjjjjjjjjjjjjjjjjjjjjjjjjjjjjjjjjY&      Gn$jjjjjjr",
"rjjjjjj$nG      CWjjjj$-5L           `DigjjjjjjjjjjjjjjjjjjjjjjjjjjjjjjjjjjjjjjjjjjjjjjjjjjjjjjjjjjjjjjjjjjjjjY&      Gn$jjjjjjr",
"rjjjjjj$nG      CWjjjjj$-5L           `Digjjjjjjjjjjjjjjjjjjjjsz7YYYYYYYYYYYYYYYYYYYYYYYYYYYYYYYYYYYYYYYYYYYYY>v      Gn$jjjjjjr",
"rjjjjjj$nG      CWjjjjjj$-5L           `Digjjjjjjjjjjjjjjjjjjjs<8p&&&&&&&&&&&&&&&&&&&&&&&&&&&&&&&&&&&&&&&&&&&&vc      Gn$jjjjjjr",
"rjjjjjj$nG      CWjjjjjjj$-5L           `Digjjjjjjjjjjjjjjjjjjj@F(_                                                   Gn$jjjjjjr",
"rjjjjjj$nG      CWjjjjjjjj$-5L           `Digjjjjjjjjjjjjjjjjjjj@F(_                                                  Gn$jjjjjjr",
"rjjjjjj$nG      CWjjjjjjjjj$-5L           `Digjjjjjjjjjjjjjjjjjjj@F(_                                                 Gn$jjjjjjr",
"rjjjjjj$nG      CWjjjjjjjjjj$-5L           `Digjjjjjjjjjjjjjjjjjjj@F(_                                                Gn$jjjjjjr",
"rjjjjjj$nG      CWjjjjjjjjjjj$-5L           `Digjjjjjjjjjjjjjjjjjjj@F(_                                               Gn$jjjjjjr",
"rjjjjjj$nG      CWjjjjjjjjjjjj$-;J           `Digjjjjjjjjjjjjjjjjjjj@F(_                                              Gn$jjjjjjr",
"rjjjjjj$nG      CWjjjjjjjjjjjjj$hl            `Digjjjjjjjjjjjjjjjjjjj@F(_                                             Gn$jjjjjjr",
"rjjjjjj$nG      CWjjjjjjjjjjjjjjWC             `Digjjjjjjjjjjjjjjjjjjj@F(_                                            Gn$jjjjjjr",
"rjjjjjj$nG      CWjjjjjjjjjjjjjjWC              `Digjjjjjjjjjjjjjjjjjjj@F(_                                           Gn$jjjjjjr",
"rjjjjjj$nG      CWjjjjjjjjjjjjjjWC               `Digjjjjjjjjjjjjjjjjjjj@F(_                                          Gn$jjjjjjr",
"rjjjjjj$nG      CWjjjjjjjjjjjjjjWC                `Digjjjjjjjjjjjjjjjjjjj@F(_                                         Gn$jjjjjjr",
"rjjjjjj$nG      CWjjjjjjjjjjjjjjWC                 `Digjjjjjjjjjjjjjjjjjjj@F(_                                        Gn$jjjjjjr",
"rjjjjjj$nG      CWjjjjjjjjjjjjjjWC                  `Digjjjjjjjjjjjjjjjjjjj@F(_                                       Gn$jjjjjjr",
"rjjjjjj$nG      CWjjjjjjjjjjjjjjWC                   `Digjjjjjjjjjjjjjjjjjjj@F(_                                      Gn$jjjjjjr",
"rjjjjjj$nG      CWjjjjjjjjjjjjjjWC                    `Digjjjjjjjjjjjjjjjjjjj@I+BBBBBBBBBBBBBBBBBBBBBBBBBBBBBB2R      Gn$jjjjjjr",
"rjjjjjj$nG      CWjjjjjjjjjjjjjjWC                     `Digjjjjjjjjjjjjjjjjjjj#^~~~~~~~~~~~~~~~~~~~~~~~~~~~~~~HU      Gn$jjjjjjr",
"rjjjjjj$nG      CWjjjjjjjjjjjjjjWC                      `DigjjjjjjjjjjjjjjjjjjjjjjjjjjjjjjjjjjjjjjjjjjjjjjjjjjY&      Gn$jjjjjjr",
"rjjjjjj$nG      CWjjjjjjjjjjjjjjWC                       `DigjjjjjjjjjjjjjjjjjjjjjjjjjjjjjjjjjjjjjjjjjjjjjjjjjY&      Gn$jjjjjjr",
"rjjjjjj$nG      CWjjjjjjjjjjjjjjWC                        `DigjjjjjjjjjjjjjjjjjjjjjjjjjjjjjjjjjjjjjjjjjjjjjjjjY&      Gn$jjjjjjr",
"rjjjjjj$nG      CWjjjjjjjjjjjjjjWC                         `DigjjjjjjjjjjjjjjjjjjjjjjjjjjjjjjjjjjjjjjjjjjjjjjjY&      Gn$jjjjjjr",
"rjjjjjj$nG      CWjjjjjjjjjjjjjjWC                          `DigjjjjjjjjjjjjjjjjjjjjjjjjjjjjjjjjjjjjjjjjjjjjjjY&      Gn$jjjjjjr",
"rjjjjjj$nG      CWjjjjjjjjjjjjjjWC                           `DigjjjjjjjjjjjjjjjjjjjjjjjjjjjjjjjjjjjjjjjjjjjjjY&      Gn$jjjjjjr",
"rjjjjjj$nG      CWjjjjjjjjjjjjjjWC                            `DigjjjjjjjjjjjjjjjjjjjjjjjjjjjjjjjjjjjjjjjjjjjjY&      Gn$jjjjjjr",
"rjjjjjj$nG      CWjjjjjjjjjjjjjjWC                             `DigjjjjjjjjjjjjjjjjjjjjjjjjjjjjjjjjjjjjjjjjjjjY&      Gn$jjjjjjr",
"rjjjjjj$nG      CWjjjjjjjjjjjjjjWC                              `DigjjjjjjjjjjjjjjjjjjjjjjjjjjjjjjjjjjjjjjjjjjY&      Gn$jjjjjjr",
"rjjjjjj$nG      CWjjjjjjjjjjjjjjWC                               `DigjjjjjjjjjjjjjjjjjjjjjjjjjjjjjjjjjjjjjjjjjY&      Gn$jjjjjjr",
"rjjjjjj$nG      CWjjjjjjjjjjjjjjWC                                `DigjjjjjjjjjjjjjjjjjjjjjjjjjjjjjjjjjjjjjjjjY&      Gn$jjjjjjr",
"rjjjjjj$nG      CWjjjjjjjjjjjjjjWC                                 `DigjjjjjjjjjjjjjjjjjjjjjjjjjjjjjjjjjjjjjjjY&      Gn$jjjjjjr",
"rjjjjjj$nG      CWjjjjjjjjjjjjjjWC                                  `DigjjjjjjjjjjjjjjjjjjjjjjjjjjjjjjjjjjjjjjY&      Gn$jjjjjjr",
"rjjjjjj$nG      CWjjjjjjjjjjjjjjWC                                   `DigjjjjjjjjjjjjjjjjjjjjjjjjjjjjjjjjjjjjjY&      Gn$jjjjjjr",
"rjjjjjj$nG      CWjjjjjjjjjjjjjjWC                                    `Digjjjjjjjjjjjjjjjjjjjjsz7YYYYYYYYYYYYY>v      Gn$jjjjjjr",
"rjjjjjj$nG      CWjjjjjjjjjjjjjjWC                                     `Digjjjjjjjjjjjjjjjjjjjs<8p&&&&&&&&&&&&vc      Gn$jjjjjjr",
"rjjjjjj$nG      CWjjjjjjjjjjjjjjWC                                      `Digjjjjjjjjjjjjjjjjjjj@F(_                   Gn$jjjjjjr",
"rjjjjjj$nG      CWjjjjjjjjjjjjjjWC                                       `Digjjjjjjjjjjjjjjjjjjj@F(_                  Gn$jjjjjjr",
"rjjjjjj$nG      CWjjjjjjjjjjjjjjWC                                        `Digjjjjjjjjjjjjjjjjjjj@F(_                 Gn$jjjjjjr",
"rjjjjjj$nG      CWjjjjjjjjjjjjjjWC                                         `Digjjjjjjjjjjjjjjjjjjj@F(_                Gn$jjjjjjr",
"rjjjjjj$nG      CWjjjjjjjjjjjjjjWC                                          `Digjjjjjjjjjjjjjjjjjjj@F(_               Gn$jjjjjjr",
"rjjjjjj$nG      CWjjjjjjjjjjjjjjWC                                           `Digjjjjjjjjjjjjjjjjjjj@F(_              Gn$jjjjjjr",
"rjjjjjj$nG      CWjjjjjjjjjjjjjjWC                                            `Digjjjjjjjjjjjjjjjjjjj@F(_             Gn$jjjjjjr",
"rjjjjjj$nG      CWjjjjjjjjjjjjjjWC                                             `Digjjjjjjjjjjjjjjjjjjj@F(_            Gn$jjjjjjr",
"rjjjjjj$nG      CWjjjjjjjjjjjjjjWC                                              `Digjjjjjjjjjjjjjjjjjjj@F(_           Gn$jjjjjjr",
"rjjjjjj$nG      CWjjjjjjjjjjjjjjWC                                               `Digjjjjjjjjjjjjjjjjjjj@F(_          Gn$jjjjjjr",
"rjjjjjj$nG      CWjjjjjjjjjjjjjjWC                                                `Digjjjjjjjjjjjjjjjjjjj@F(_         Gn$jjjjjjr",
"rjjjjjj$nG      CWjjjjjjjjjjjjjjWC                                                 `Digjjjjjjjjjjjjjjjjjjj@F(_        Gn$jjjjjjr",
"rjjjjjj$nG      CWjjjjjjjjjjjjjjWC                                                  `Digjjjjjjjjjjjjjjjjjjj@F(_       Gn$jjjjjjr",
"rjjjjjj$nG      CWjjjjjjjjjjjjjjWC                                                   `Digjjjjjjjjjjjjjjjjjjj@F(_      Gn$jjjjjjr",
"rjjjjjj$nG      CWjjjjjjjjjjjjjjWC                                                    `Digjjjjjjjjjjjjjjjjjjj@4x      Gn$jjjjjjr",
"rjjjjjj$nG      CWjjjjjjjjjjjjjjWC                                                     `Digjjjjjjjjjjjjjjjjjjj0&      Gn$jjjjjjr",
"rjjjjjj$nG      CWjjjjjjjjjjjjjjWC                                                      `DigjjjjjjjjjjjjjjjjjjY&      Gn$jjjjjjr",
"rjjjjjj$nG      CWjjjjjjjjjjjjjjWC                                                       `DigjjjjjjjjjjjjjjjjjY&      Gn$jjjjjjr",
"rjjjjjj$nG      CWjjjjjjjjjjjjjjWC                                                        `DigjjjjjjjjjjjjjjjjY&      Gn$jjjjjjr",
"rjjjjjj$nG      CWjjjjjjjjjjjjjjWC                                                         `DigjjjjjjjjjjjjjjjY&      Gn$jjjjjjr",
"rjjjjjj$nG      CWjjjjjjjjjjjjjjWC                                                          `DigjjjjjjjjjjjjjjY&      Gn$jjjjjjr",
"rjjjjjj$nG      CWjjjjjjjjjjjjjjWC                                                           `DigjjjjjjjjjjjjjY&      Gn$jjjjjjr",
"rjjjjjj$nG      CWjjjjjjjjjjjjjjWC                                                            `DigjjjjjjjjjjjjY&      Gn$jjjjjjr",
"rjjjjjj$nG      CWjjjjjjjjjjjjjjWC                                                             `DigjjjjjjjjjjjY&      Gn$jjjjjjr",
"rjjjjjj$nG      CWjjjjjjjjjjjjjjWC                                                              `DigjjjjjjjjjjY&      Gn$jjjjjjr",
"rjjjjjj$nG      CWjjjjjjjjjjjjjjWC                                                               `DigjjjjjjjjjY&      Gn$jjjjjjr",
"rjjjjjj$nG      CWjjjjjjjjjjjjjjWC                                                                `DigjjjjjjjjY&      Gn$jjjjjjr",
"rjjjjjj$nG      CWjjjjjjjjjjjjjjWC                                                                 `DigjjjjjjjY&      Gn$jjjjjjr",
"rjjjjjj$nG      CWjjjjjjjjjjjjjjtyTTTTTTTTTTTTTTTTTTTTTTTTTTTTTTTTTTTTTTTTTTTTTTTTTTTTV,o           `DigjjjjjjY&      Gn$jjjjjjr",
"rjjjjjj$nG      CWjjjjjjjjjjjjjjsOuuuuuuuuuuuuuuuuuuuuuuuuuuuuuuuuuuuuuuuuuuuuuuuuuuuuu=5L           `DigjjjjjY&      Gn$jjjjjjr",
"rjjjjjj$nG      CWjjjjjjjjjjjjjjjjjjjjjjjjjjjjjjjjjjjjjjjjjjjjjjjjjjjjjjjjjjjjjjjjjjjjj$-5L           `DigjjjjY&      Gn$jjjjjjr",
"rjjjjjj$nG      CWjjjjjjjjjjjjjjjjjjjjjjjjjjjjjjjjjjjjjjjjjjjjjjjjjjjjjjjjjjjjjjjjjjjjjj$-5L           `DigjjjY&      Gn$jjjjjjr",
"rjjjjjj$nG      CWjjjjjjjjjjjjjjjjjjjjjjjjjjjjjjjjjjjjjjjjjjjjjjjjjjjjjjjjjjjjjjjjjjjjjjj$-5L           `DigjjY&      Gn$jjjjjjr",
"rjjjjjj$nG      CWjjjjjjjjjjjjjjjjjjjjjjjjjjjjjjjjjjjjjjjjjjjjjjjjjjjjjjjjjjjjjjjjjjjjjjjj$-5L           `DigjY&      Gn$jjjjjjr",
"rjjjjjj$nG      CWjjjjjjjjjjjjjjjjjjjjjjjjjjjjjjjjjjjjjjjjjjjjjjjjjjjjjjjjjjjjjjjjjjjjjjjjj$-5L           `DigY&      Gn$jjjjjjr",
"rjjjjjj$nG      CWjjjjjjjjjjjjjjjjjjjjjjjjjjjjjjjjjjjjjjjjjjjjjjjjjjjjjjjjjjjjjjjjjjjjjjjjjj$-5L           `Di9&      Gn$jjjjjjr",
"rjjjjjj$nG      CWjjjjjjjjjjjjjjjjjjjjjjjjjjjjjjjjjjjjjjjjjjjjjjjjjjjjjjjjjjjjjjjjjjjjjjjjjjj$-5L           `D1e      Gn$jjjjjjr",
"rjjjjjj$nG      CWjjjjjjjjjjjjjjjjjjjjjjjjjjjjjjjjjjjjjjjjjjjjjjjjjjjjjjjjjjjjjjjjjjjjjjjjjjjj$-5L           `qJ      Gn$jjjjjjr",
"rjjjjjj$nG      CWjjjjjjjjjjjjjjjjjjjjjjjjjjjjjjjjjjjjjjjjjjjjjjjjjjjjjjjjjjjjjjjjjjjjjjjjjjjjj$-5L                   Gn$jjjjjjr",
"rjjjjjj$nG      CWjjjjjjjjjjjjjjjjjjjjjjjjjjjjjjjjjjjjjjjjjjjjjjjjjjjjjjjjjjjjjjjjjjjjjjjjjjjjjj$-5L                  Gn$jjjjjjr",
"rjjjjjj$nG      CWjjjjjjjjjjjjjjjjjjjjjjjjjjjjjjjjjjjjjjjjjjjjjjjjjjjjjjjjjjjjjjjjjjjjjjjjjjjjjjj$-5L                 Gn$jjjjjjr",
"rjjjjjj$nG      CWjjjjjjjjjjjjjjjjjjjjjjjjjjjjjjjjjjjjjjjjjjjjjjjjjjjjjjjjjjjjjjjjjjjjjjjjjjjjjjjj$-5L                Gn$jjjjjjr",
"rjjjjjj$nG      CWjjjjjjjjjjjjjjjjjjjjjjjjjjjjjjjjjjjjjjjjjjjjjjjjjjjjjjjjjjjjjjjjjjjjjjjjjjjjjjjjj$-5L               Gn$jjjjjjr",
"rjjjjjj$nG      CWjjjjjjjjjjjjjjjjjjjjjjjjjjjjjjjjjjjjjjjjjjjjjjjjjjjjjjjjjjjjjjjjjjjjjjjjjjjjjjjjjj$-5L              Gn$jjjjjjr",
"rjjjjjj$nG      /*NNNNNNNNNNNNNNNNNNNNNNNNNNNNNNNNNNNNNNNNNNNNNNNNNNNNNNNNNNNNNNNNNNNNNNNNNNNNNNNNNNNM6k              Gn$jjjjjjr",
"rjjjjjj$nG      XAddddddddddddddddddddddddddddddddddddddddddddddddddddddddddddddddddddddddddddddddddddx%              Gn$jjjjjjr",
"rjjjjjj$nG                                                                                                            Gn$jjjjjjr",
"rjjjjjj$nG                                                                                                            Gn$jjjjjjr",
"rjjjjjj$nG                                                                                                            Gn$jjjjjjr",
"rjjjjjj$nG                                                                                                            Gn$jjjjjjr",
"rjjjjjj$nG                                                                                                            Gn$jjjjjjr",
"rjjjjjj$nG                                                                                                            Gn$jjjjjjr",
"rjjjjjj$mPGGGGGGGGGGGGGGGGGGGGGGGGGGGGGGGGGGGGGGGGGGGGGGGGGGGGGGGGGGGGGGGGGGGGGGGGGGGGGGGGGGGGGGGGGGGGGGGGGGGGGGGGGGGGPm$jjjjjjr",
"rjjjjjjjwbnnnnnnnnnnnnnnnnnnnnnnnnnnnnnnnnnnnnnnnnnnnnnnnnnnnnnnnnnnnnnnnnnnnnnnnnnnnnnnnnnnnnnnnnnnnnnnnnnnnnnnnnnnnnbwjjjjjjjr",
"rjjjjjjjj$$$$$$$$$$$$$$$$$$$$$$$$$$$$$$$$$$$$$$$$$$$$$$$$$$$$$$$$$$$$$$$$$$$$$$$$$$$$$$$$$$$$$$$$$$$$$$$$$$$$$$$$$$$$$$jjjjjjjjr",
"rjjjjjjjjjjjjjjjjjjjjjjjjjjjjjjjjjjjjjjjjjjjjjjjjjjjjjjjjjjjjjjjjjjjjjjjjjjjjjjjjjjjjjjjjjjjjjjjjjjjjjjjjjjjjjjjjjjjjjjjjjjjjjjr",
"rjjjjjjjjjjjjjjjjjjjjjjjjjjjjjjjjjjjjjjjjjjjjjjjjjjjjjjjjjjjjjjjjjjjjjjjjjjjjjjjjjjjjjjjjjjjjjjjjjjjjjjjjjjjjjjjjjjjjjjjjjjjjjjr",
"rjjjjjjjjjjjjjjjjjjjjjjjjjjjjjjjjjjjjjjjjjjjjjjjjjjjjjjjjjjjjjjjjjjjjjjjjjjjjjjjjjjjjjjjjjjjjjjjjjjjjjjjjjjjjjjjjjjjjjjjjjjjjjjr",
"rjjjjjjjjjjjjjjjjjjjjjjjjjjjjjjjjjjjjjjjjjjjjjjjjjjjjjjjjjjjjjjjjjjjjjjjjjjjjjjjjjjjjjjjjjjjjjjjjjjjjjjjjjjjjjjjjjjjjjjjjjjjjjjr",
"rjjjjjjjjjjjjjjjjjjjjjjjjjjjjjjjjjjjjjjjjjjjjjjjjjjjjjjjjjjjjjjjjjjjjjjjjjjjjjjjjjjjjjjjjjjjjjjjjjjjjjjjjjjjjjjjjjjjjjjjjjjjjjjr",
"rjjjjjjjjjjjjjjjjjjjjjjjjjjjjjjjjjjjjjjjjjjjjjjjjjjjjjjjjjjjjjjjjjjjjjjjjjjjjjjjjjjjjjjjjjjjjjjjjjjjjjjjjjjjjjjjjjjjjjjjjjjjjjjr",
"ZrrrrrrrrrrrrrrrrrrrrrrrrrrrrrrrrrrrrrrrrrrrrrrrrrrrrrrrrrrrrrrrrrrrrrrrrrrrrrrrrrrrrrrrrrrrrrrrrrrrrrrrrrrrrrrrrrrrrrrrrrrrrrrZ"
};
