/* XPM */
static char *graphic[] = {
/* width height num_colors chars_per_pixel */
"32 32 101 2", 
/* colors */
"   c None",
".  c #0098CB",
"X  c None",
"o  c #0098CB",
"O  c #0098CB",
"+  c None",
"@  c #0098CB",
"#  c #0098CC",
"$  c #0198CA",
"%  c #0098CB",
"&  c #0098CB",
"*  c #0098CC",
"=  c #0098CB",
"-  c None",
";  c #0098CC",
":  c None",
">  c #0198CC",
",  c #0097CA",
"<  c None",
"1  c None",
"2  c #0097CA",
"3  c #0099CB",
"4  c None",
"5  c #0097CB",
"6  c None",
"7  c #0097CA",
"8  c None",
"9  c None",
"0  c None",
"q  c #0097CB",
"w  c #0199CB",
"e  c None",
"r  c None",
"t  c None",
"y  c None",
"u  c None",
"i  c #0197CB",
"p  c #0099CB",
"a  c None",
"s  c #0099CB",
"d  c #0197CC",
"f  c #0099CB",
"g  c None",
"h  c None",
"j  c None",
"k  c None",
"l  c #0097CB",
"z  c #0099CC",
"x  c #0099CB",
"c  c #0099CB",
"v  c None",
"b  c None",
"n  c #0097CB",
"m  c #0099CC",
"M  c #0099CC",
"N  c #0097CC",
"B  c None",
"V  c None",
"C  c #0098CB",
"Z  c None",
"A  c #0098CA",
"S  c None",
"D  c None",
"F  c None",
"G  c #0098CB",
"H  c None",
"J  c #0098CB",
"K  c #0098CB",
"L  c #0098CB",
"P  c None",
"I  c #0098CB",
"U  c None",
"Y  c None",
"T  c None",
"R  c #0098CB",
"E  c None",
"W  c None",
"Q  c #0198CA",
"!  c #0198CB",
"~  c #0098CB",
"^  c None",
"/  c None",
"(  c #0198CC",
")  c None",
"_  c None",
"`  c #0098CB",
"'  c None",
"]  c None",
"[  c #0198CC",
"{  c None",
"}  c #0098CA",
"|  c None",
" . c None",
".. c None",
"X. c #0098CB",
"o. c None",
"O. c None",
"+. c #0098CB",
"@. c #0098CB",
"#. c None",
"$. c #0098CB",
/* pixels */
"K ~ ~ ~ ~ ~ ~ ~ ~ ~ ~ ~ ~ ~ ~ ~ ~ ~ ~ ~ ~ ~ ~ ~ ~ ~ ~ ~ ~ ~ ~ K ",
"~ & # l l l l l l l l l l l l l l l l l l l l l l l l l l # & ~ ",
"~ # : e e e e e e e e e e e e e e e e e e e e e e e e e e : # ~ ",
"~ l e     6 j F F F F F F F F F F F F F F F F F F F F Y 6 e l ~ ",
"~ l e     B r 2 7 7 7 7 7 7 7 7 7 7 7 7 7 7 7 7 7 7 R v U e l ~ ",
"~ l e 6 E #./ ( N M M M M M M M M M M M M M M M M M c L b e l ~ ",
"~ l e W 9 ^ 6 { w z M M M M M M M M M M M M M M M M c L b e l ~ ",
"~ l e 0 J [ 4 6 { w z M M M M m } @.@.@.@.@.@.@.@.@.p A S e l ~ ",
"~ l e 0 I * i 4 6 { w z M M M . ! ..h h h h h h h h h 8 B e l ~ ",
"~ l e 0 I c o d k ' { w z M M ; > X _                     e l ~ ",
"~ l e 0 I c M X.) ' ' { w z M M ; $ + B                   e l ~ ",
"~ l e 0 I c M $...'   ' { w z M M ; $ ] o.F F F F F F j 6 e l ~ ",
"~ l e 0 I c M $...'     ' { w z M M ; ` q 7 7 7 7 7 R v U e l ~ ",
"~ l e 0 I c M $...'       ' { w z M M M M M M M M M c L b e l ~ ",
"~ l e 0 I c M $...'         ' { w z M M M M M M M M c L b e l ~ ",
"~ l e 0 I c M $...'           ' { w z M M M M m } @.p A S e l ~ ",
"~ l e 0 I c M $...'             ' { w z M M M . ! ..h 8 B e l ~ ",
"~ l e 0 I c M $...'               ' { w z M M ; > X _     e l ~ ",
"~ l e 0 I c M $...'                 ' { w z M M ; $ + B   e l ~ ",
"~ l e 0 I c M $...'                   ' { w z M M ; $ t D e l ~ ",
"~ l e 0 I c M $...'                     ' { w z M M % A j e l ~ ",
"~ l e 0 I c M $...'                       ' { w z M c L b e l ~ ",
"~ l e 0 I c M $.g P #.#.#.#.#.#.#.#.#.#.#.#.#.{ w z c L b e l ~ ",
"~ l e 0 I c M O C a y y y y y y y y y y y H O.6 { w s L b e l ~ ",
"~ l e 0 I c M c @ f f f f f f f f f f f f +.Q 4 6 { ( G b e l ~ ",
"~ l e 0 I c M M M M M M M M M M M M M M M M o i 4 6 1 u V e l ~ ",
"~ l e 0 3 x = = = = = = = = = = = = = = = = = n Q < #.D #.e l ~ ",
"~ l e | - 5 5 5 5 5 5 5 5 5 5 5 5 5 5 5 5 5 5 5 , + Z     e l ~ ",
"~ l e #. .Y Y Y Y Y Y Y Y Y Y Y Y Y Y Y Y Y Y Y Y T #.    e l ~ ",
"~ # : e e e e e e e e e e e e e e e e e e e e e e e e e e : # ~ ",
"~ & # l l l l l l l l l l l l l l l l l l l l l l l l l l # & ~ ",
"K ~ ~ ~ ~ ~ ~ ~ ~ ~ ~ ~ ~ ~ ~ ~ ~ ~ ~ ~ ~ ~ ~ ~ ~ ~ ~ ~ ~ ~ ~ K "
};
